<svg xmlns="http://www.w3.org/2000/svg" version="1.1" xmlns:xlink="http://www.w3.org/1999/xlink" xmlns:svgjs="http://svgjs.dev/svgjs" width="2000" height="338" viewBox="0 0 2000 338"><g transform="matrix(1,0,0,1,-1.2121212121213603,-1.2210622696988196)"><svg viewBox="0 0 396 67" data-background-color="#ffffff" preserveAspectRatio="xMidYMid meet" height="338" width="2000" xmlns="http://www.w3.org/2000/svg" xmlns:xlink="http://www.w3.org/1999/xlink"><g id="tight-bounds" transform="matrix(1,0,0,1,0.24000000000003752,0.242044887780537)"><svg viewBox="0 0 395.5199999999999 66.5159102244389" height="66.5159102244389" width="395.5199999999999"><g><svg viewBox="0 0 395.5199999999999 66.5159102244389" height="66.5159102244389" width="395.5199999999999"><g><svg viewBox="0 0 395.5199999999999 66.5159102244389" height="66.5159102244389" width="395.5199999999999"><g><svg viewBox="0 0 395.52000000000004 66.51591022443891" height="66.5159102244389" width="395.5199999999999"><g><svg viewBox="0 0 395.52000000000004 66.51591022443891" height="66.51591022443891" width="395.52000000000004"><g id="textblocktransform"><svg viewBox="0 0 395.52000000000004 66.51591022443891" height="66.51591022443891" width="395.52000000000004" id="textblock"><g><svg viewBox="0 0 395.52000000000004 66.51591022443891" height="66.51591022443891" width="395.52000000000004"><g transform="matrix(1,0,0,1,0,0)"><svg width="395.52000000000004" viewBox="-3.8 -42.75 321.78000000000003 54.95" height="66.51591022443891" data-palette-color="#0718c4"><path d="M26.7 5.95L26.7 5.95 14.5 5.95Q7.95 5.95 4.83 2.55 1.7-0.85 1.7-6.25L1.7-6.25 1.7-20.3Q1.7-23.05 2.5-25.08 3.3-27.1 4.85-28.45L4.85-28.45 11.35-33.9Q12.9-35.2 15.3-35.85 17.7-36.5 20.95-36.5L20.95-36.5 33.15-36.5Q34.35-36.5 34.9-35.95 35.45-35.4 35.45-34.2L35.45-34.2 35.45-28.15Q35.45-27.5 35.27-27.05 35.1-26.6 34.75-26.3L34.75-26.3 28.25-20.9Q28.05-20.7 27.63-20.55 27.2-20.4 26.7-20.4L26.7-20.4 20.55-20.4 20.55-11.95Q20.55-10.9 21.2-10.48 21.85-10.05 23.1-10.05L23.1-10.05 33.15-10.05Q34.35-10.05 34.9-9.5 35.45-8.95 35.45-7.75L35.45-7.75 35.45-1.8Q35.45-1.15 35.27-0.7 35.1-0.25 34.75 0.05L34.75 0.05 28.25 5.45Q28.05 5.65 27.63 5.8 27.2 5.95 26.7 5.95ZM20.95 0L33.15 0Q34.1 0 34.52-0.43 34.95-0.85 34.95-1.8L34.95-1.8 34.95-7.75Q34.95-8.7 34.52-9.13 34.1-9.55 33.15-9.55L33.15-9.55 23.1-9.55Q21.55-9.55 20.8-10.13 20.05-10.7 20.05-11.95L20.05-11.95 20.05-23.85Q20.05-25.1 20.8-25.73 21.55-26.35 23.1-26.35L23.1-26.35 33.15-26.35Q34.1-26.35 34.52-26.78 34.95-27.2 34.95-28.15L34.95-28.15 34.95-34.2Q34.95-35.15 34.52-35.58 34.1-36 33.15-36L33.15-36 20.95-36Q14.7-36 11.68-33.48 8.65-30.95 8.65-25.75L8.65-25.75 8.65-10.2Q8.65-5 11.68-2.5 14.7 0 20.95 0L20.95 0ZM22.05-5L30.4-5 30.4-4.5 22.05-4.5Q17.2-4.5 15.63-6 14.05-7.5 14.05-10.95L14.05-10.95 14.05-24.95Q14.05-28.5 15.65-30 17.25-31.5 22.05-31.5L22.05-31.5 30.4-31.5 30.4-31 22.05-31Q17.65-31 16.1-29.63 14.55-28.25 14.55-24.95L14.55-24.95 14.55-10.95Q14.55-7.7 16.05-6.35 17.55-5 22.05-5L22.05-5ZM73.35-1.85L66.9 3.55Q65.15 5.05 62 5.88 58.85 6.7 53.9 6.7L53.9 6.7Q49 6.7 45.87 5.68 42.75 4.65 40.97 2.95 39.2 1.25 38.52-0.95 37.85-3.15 37.85-5.5L37.85-5.5 37.85-21.05Q37.85-23.35 38.5-25.33 39.15-27.3 40.85-28.7L40.85-28.7 47.35-34.1Q49.1-35.6 52.22-36.43 55.35-37.25 60.35-37.25L60.35-37.25Q65.25-37.25 68.37-36.45 71.5-35.65 73.27-34.23 75.05-32.8 75.7-30.83 76.35-28.85 76.35-26.5L76.35-26.5 76.35-9.45Q76.35-7.15 75.7-5.2 75.05-3.25 73.35-1.85L73.35-1.85ZM75.85-9.45L75.85-9.45 75.85-26.5Q75.85-28.8 75.17-30.68 74.5-32.55 72.77-33.9 71.05-35.25 68.02-36 65-36.75 60.35-36.75L60.35-36.75Q55.7-36.75 52.65-36 49.6-35.25 47.87-33.9 46.15-32.55 45.47-30.68 44.8-28.8 44.8-26.5L44.8-26.5 44.8-9.45Q44.8-7.15 45.47-5.28 46.15-3.4 47.87-2.08 49.6-0.75 52.65 0 55.7 0.75 60.35 0.75L60.35 0.75Q65 0.75 68.02 0 71.05-0.75 72.77-2.08 74.5-3.4 75.17-5.28 75.85-7.15 75.85-9.45ZM70.4-25.35L70.4-10.6Q70.4-7.6 68.25-5.73 66.1-3.85 60.25-3.85L60.25-3.85Q54.4-3.85 52.3-5.73 50.2-7.6 50.2-10.6L50.2-10.6 50.2-25.35Q50.2-28.35 52.3-30.23 54.4-32.1 60.25-32.1L60.25-32.1Q66.1-32.1 68.25-30.23 70.4-28.35 70.4-25.35L70.4-25.35ZM50.7-25.35L50.7-10.6Q50.7-7.8 52.7-6.08 54.7-4.35 60.25-4.35L60.25-4.35Q65.8-4.35 67.85-6.08 69.9-7.8 69.9-10.6L69.9-10.6 69.9-25.35Q69.9-28.15 67.85-29.88 65.8-31.6 60.25-31.6L60.25-31.6Q54.7-31.6 52.7-29.88 50.7-28.15 50.7-25.35L50.7-25.35ZM56.15-11.25L56.15-11.25 56.15-24.7Q56.15-25.65 56.9-26.33 57.65-27 60.35-27L60.35-27Q63.05-27 63.8-26.33 64.55-25.65 64.55-24.7L64.55-24.7 64.55-11.25Q64.55-10.25 63.8-9.58 63.05-8.9 60.35-8.9L60.35-8.9Q57.65-8.9 56.9-9.58 56.15-10.25 56.15-11.25ZM56.65-20.7L56.65-11.25Q56.65-10.75 56.85-10.38 57.05-10 57.6-9.75L57.6-9.75 57.6-19.25Q57.6-19.75 57.4-20.13 57.2-20.5 56.65-20.7L56.65-20.7ZM115.5-2.1L109 3.3Q107.45 4.6 105.05 5.28 102.65 5.95 99.4 5.95L99.4 5.95 82.55 5.95Q81.34 5.95 80.8 5.4 80.25 4.85 80.25 3.65L80.25 3.65 80.25-28.75Q80.25-29.4 80.42-29.85 80.59-30.3 80.95-30.6L80.95-30.6 87.4-36.05Q87.65-36.25 88.07-36.38 88.5-36.5 89-36.5L89-36.5 105.84-36.5Q112.4-36.5 115.52-33.85 118.65-31.2 118.65-25.8L118.65-25.8 118.65-10.2Q118.65-7.5 117.84-5.48 117.05-3.45 115.5-2.1L115.5-2.1ZM89 0L105.84 0Q112.09 0 115.12-2.5 118.15-5 118.15-10.2L118.15-10.2 118.15-25.8Q118.15-31 115.12-33.5 112.09-36 105.84-36L105.84-36 89-36Q88.05-36 87.62-35.58 87.2-35.15 87.2-34.2L87.2-34.2 87.2-1.8Q87.2-0.85 87.62-0.43 88.05 0 89 0L89 0ZM104.75-4.5L92.65-4.5 92.65-31.5 104.75-31.5Q107.3-31.5 108.87-30.95 110.45-30.4 111.3-29.48 112.15-28.55 112.45-27.28 112.75-26 112.75-24.55L112.75-24.55 112.75-11.3Q112.75-9.85 112.47-8.6 112.2-7.35 111.34-6.45 110.5-5.55 108.9-5.03 107.3-4.5 104.75-4.5L104.75-4.5ZM104.75-31L104.75-31 93.15-31 93.15-5 104.75-5Q107.15-5 108.62-5.48 110.09-5.95 110.9-6.78 111.7-7.6 111.97-8.78 112.25-9.95 112.25-11.3L112.25-11.3 112.25-24.55Q112.25-25.9 111.95-27.1 111.65-28.3 110.84-29.15 110.05-30 108.57-30.5 107.09-31 104.75-31ZM98.55-9.45L98.55-26.45 104.5-26.45Q105.7-26.45 106.27-25.88 106.84-25.3 106.84-24.05L106.84-24.05 106.84-11.9Q106.84-10.65 106.27-10.05 105.7-9.45 104.5-9.45L104.5-9.45 98.55-9.45ZM99.9-9.95L99.9-18.6Q99.9-19.25 99.7-19.7 99.5-20.15 99.05-20.35L99.05-20.35 99.05-9.95 99.9-9.95ZM148.04 5.95L148.04 5.95 124.84 5.95Q123.64 5.95 123.09 5.4 122.54 4.85 122.54 3.65L122.54 3.65 122.54-28.75Q122.54-29.4 122.72-29.85 122.89-30.3 123.24-30.6L123.24-30.6 129.69-36.05Q129.94-36.25 130.37-36.38 130.79-36.5 131.29-36.5L131.29-36.5 154.49-36.5Q155.69-36.5 156.24-35.95 156.79-35.4 156.79-34.2L156.79-34.2 156.79-28.35Q156.79-27.7 156.62-27.25 156.44-26.8 156.09-26.5L156.09-26.5 151.79-22.95Q152.29-22.7 152.52-22.2 152.74-21.7 152.74-20.9L152.74-20.9 152.74-15.55Q152.74-14.9 152.57-14.45 152.39-14 152.04-13.7L152.04-13.7 147.59-9.95 154.49-9.95Q155.69-9.95 156.24-9.4 156.79-8.85 156.79-7.65L156.79-7.65 156.79-1.8Q156.79-1.15 156.62-0.7 156.44-0.25 156.09 0.05L156.09 0.05 149.59 5.45Q149.39 5.65 148.97 5.8 148.54 5.95 148.04 5.95ZM131.29 0L154.49 0Q155.44 0 155.87-0.43 156.29-0.85 156.29-1.8L156.29-1.8 156.29-7.65Q156.29-8.6 155.87-9.03 155.44-9.45 154.49-9.45L154.49-9.45 140.69-9.45 140.69-13.75 150.44-13.75Q151.39-13.75 151.82-14.18 152.24-14.6 152.24-15.55L152.24-15.55 152.24-20.9Q152.24-21.85 151.82-22.28 151.39-22.7 150.44-22.7L150.44-22.7 140.69-22.7 140.69-26.55 154.49-26.55Q155.44-26.55 155.87-26.98 156.29-27.4 156.29-28.35L156.29-28.35 156.29-34.2Q156.29-35.15 155.87-35.58 155.44-36 154.49-36L154.49-36 131.29-36Q130.34-36 129.92-35.58 129.49-35.15 129.49-34.2L129.49-34.2 129.49-1.8Q129.49-0.85 129.92-0.43 130.34 0 131.29 0L131.29 0ZM135.44-5L151.79-5 151.79-4.5 134.94-4.5 134.94-31.5 151.79-31.5 151.79-31 135.44-31 135.44-18.45 147.74-18.45 147.74-17.95 135.44-17.95 135.44-5ZM182.04 5.95L169.04 5.95Q167.89 5.95 167.19 5.53 166.49 5.1 166.04 4L166.04 4 161.14-8.25Q160.69-9.4 160.37-10.23 160.04-11.05 159.84-11.83 159.64-12.6 159.56-13.48 159.49-14.35 159.49-15.55L159.49-15.55 159.49-28.75Q159.49-29.4 159.67-29.85 159.84-30.3 160.19-30.6L160.19-30.6 166.64-36.05Q166.89-36.25 167.31-36.38 167.74-36.5 168.24-36.5L168.24-36.5 176.19-36.5Q177.39-36.5 178.02-35.93 178.64-35.35 178.64-34.2L178.64-34.2 178.64-20.4Q178.64-19.9 178.74-19.45 178.84-19 178.99-18.5L178.99-18.5 179.14-18.15 179.14-28.75Q179.14-29.4 179.31-29.85 179.49-30.3 179.84-30.6L179.84-30.6 186.29-36.05Q186.54-36.25 186.97-36.38 187.39-36.5 187.89-36.5L187.89-36.5 195.74-36.5Q196.99-36.5 197.52-35.95 198.04-35.4 198.04-34.2L198.04-34.2 198.04-21Q198.04-19.8 197.97-18.93 197.89-18.05 197.69-17.28 197.49-16.5 197.17-15.68 196.84-14.85 196.39-13.7L196.39-13.7 191.49-1.45Q191.34-1 191.09-0.65 190.84-0.3 190.59-0.1L190.59-0.1 184.14 5.25Q183.74 5.6 183.22 5.78 182.69 5.95 182.04 5.95L182.04 5.95ZM175.49 0L188.49 0Q189.44 0 190.06-0.35 190.69-0.7 191.04-1.65L191.04-1.65 195.94-13.9Q196.39-15 196.69-15.83 196.99-16.65 197.19-17.4 197.39-18.15 197.47-18.98 197.54-19.8 197.54-21L197.54-21 197.54-34.2Q197.54-35.15 197.12-35.58 196.69-36 195.74-36L195.74-36 187.89-36Q186.94-36 186.52-35.58 186.09-35.15 186.09-34.2L186.09-34.2 186.09-20.45Q186.09-19.95 185.99-19.45 185.89-18.95 185.69-18.4L185.69-18.4 183.34-11.35Q183.19-10.85 182.99-10.68 182.79-10.5 182.39-10.5L182.39-10.5 181.84-10.5Q181.44-10.5 181.24-10.68 181.04-10.85 180.89-11.35L180.89-11.35 178.54-18.35Q178.34-18.9 178.24-19.4 178.14-19.9 178.14-20.4L178.14-20.4 178.14-34.2Q178.14-35.15 177.64-35.58 177.14-36 176.19-36L176.19-36 168.24-36Q167.29-36 166.87-35.58 166.44-35.15 166.44-34.2L166.44-34.2 166.44-21Q166.44-19.8 166.52-18.98 166.59-18.15 166.79-17.4 166.99-16.65 167.29-15.83 167.59-15 168.04-13.9L168.04-13.9 172.94-1.65Q173.29-0.7 173.92-0.35 174.54 0 175.49 0L175.49 0ZM172.09-20.7L172.09-31.5 172.59-31.5 172.59-20.7Q172.59-19.4 172.79-18.23 172.99-17.05 173.39-16.05L173.39-16.05 176.69-8.05Q177.19-6.75 177.81-5.88 178.44-5 179.84-5L179.84-5 184.24-5Q185.64-5 186.27-5.88 186.89-6.75 187.39-8.05L187.39-8.05 190.69-16.05Q191.09-17.05 191.29-18.23 191.49-19.4 191.49-20.7L191.49-20.7 191.49-31.5 191.99-31.5 191.99-20.7Q191.99-19.3 191.81-18.13 191.64-16.95 191.19-15.85L191.19-15.85 187.89-7.85Q187.29-6.4 186.54-5.45 185.79-4.5 184.24-4.5L184.24-4.5 179.84-4.5Q178.29-4.5 177.54-5.45 176.79-6.4 176.19-7.85L176.19-7.85 172.89-15.85Q172.44-16.95 172.27-18.13 172.09-19.3 172.09-20.7L172.09-20.7ZM224.54 5.95L224.54 5.95 203.24 5.95Q202.04 5.95 201.49 5.4 200.94 4.85 200.94 3.65L200.94 3.65 200.94-2.3Q200.94-2.95 201.11-3.4 201.29-3.85 201.64-4.15L201.64-4.15 207.69-9.25 207.69-20.4 203.24-20.4Q202.04-20.4 201.49-20.95 200.94-21.5 200.94-22.7L200.94-22.7 200.94-28.75Q200.94-29.4 201.11-29.85 201.29-30.3 201.64-30.6L201.64-30.6 208.09-36.05Q208.34-36.25 208.76-36.38 209.19-36.5 209.69-36.5L209.69-36.5 230.99-36.5Q232.19-36.5 232.74-35.95 233.29-35.4 233.29-34.2L233.29-34.2 233.29-28.15Q233.29-27.5 233.11-27.05 232.94-26.6 232.59-26.3L232.59-26.3 226.64-21.3 226.64-10.05 230.99-10.05Q232.19-10.05 232.74-9.5 233.29-8.95 233.29-7.75L233.29-7.75 233.29-1.8Q233.29-1.15 233.11-0.7 232.94-0.25 232.59 0.05L232.59 0.05 226.09 5.45Q225.89 5.65 225.46 5.8 225.04 5.95 224.54 5.95ZM209.69 0L209.69 0 230.99 0Q231.94 0 232.36-0.43 232.79-0.85 232.79-1.8L232.79-1.8 232.79-7.75Q232.79-8.7 232.36-9.13 231.94-9.55 230.99-9.55L230.99-9.55 226.14-9.55 226.14-26.35 230.99-26.35Q231.94-26.35 232.36-26.78 232.79-27.2 232.79-28.15L232.79-28.15 232.79-34.2Q232.79-35.15 232.36-35.58 231.94-36 230.99-36L230.99-36 209.69-36Q208.74-36 208.31-35.58 207.89-35.15 207.89-34.2L207.89-34.2 207.89-28.15Q207.89-27.2 208.31-26.78 208.74-26.35 209.69-26.35L209.69-26.35 214.64-26.35 214.64-9.55 209.69-9.55Q208.74-9.55 208.31-9.13 207.89-8.7 207.89-7.75L207.89-7.75 207.89-1.8Q207.89-0.85 208.31-0.43 208.74 0 209.69 0ZM228.29-5L228.29-4.5 212.39-4.5 212.39-5 220.14-5 220.14-31 212.39-31 212.39-31.5 228.29-31.5 228.29-31 220.64-31 220.64-5 228.29-5ZM258.49 5.95L239.29 5.95Q238.09 5.95 237.54 5.4 236.99 4.85 236.99 3.65L236.99 3.65 236.99-28.75Q236.99-29.4 237.16-29.85 237.34-30.3 237.69-30.6L237.69-30.6 244.14-36.05Q244.39-36.25 244.81-36.38 245.24-36.5 245.74-36.5L245.74-36.5 261.69-36.5Q266.88-36.5 269.34-34.48 271.79-32.45 271.79-28.35L271.79-28.35 271.79-25.95Q271.79-24.2 271.31-22.95 270.84-21.7 269.88-20.95L269.88-20.95 269.74-20.85Q272.44-20.25 273.79-18.28 275.13-16.3 275.13-12.8L275.13-12.8 275.13-8.2Q275.13-5.95 274.49-4.33 273.84-2.7 272.54-1.6L272.54-1.6 266.09 3.85Q264.84 4.9 262.94 5.43 261.04 5.95 258.49 5.95L258.49 5.95ZM245.74 0L264.94 0Q269.88 0 272.26-2 274.63-4 274.63-8.2L274.63-8.2 274.63-12.8Q274.63-16.45 273.09-18.35 271.54-20.25 268.34-20.55L268.34-20.55Q269.84-21.2 270.56-22.53 271.29-23.85 271.29-25.95L271.29-25.95 271.29-28.35Q271.29-32.25 268.94-34.13 266.59-36 261.69-36L261.69-36 245.74-36Q244.79-36 244.36-35.58 243.94-35.15 243.94-34.2L243.94-34.2 243.94-1.8Q243.94-0.85 244.36-0.43 244.79 0 245.74 0L245.74 0ZM262.94-4.5L262.94-4.5 249.49-4.5 249.49-31.5 259.63-31.5Q261.69-31.5 262.99-31.08 264.29-30.65 264.99-29.93 265.69-29.2 265.94-28.25 266.19-27.3 266.19-26.2L266.19-26.2 266.19-23Q266.19-21.5 265.66-20.25 265.13-19 262.99-18.45L262.99-18.45Q265.04-18.45 266.34-18.03 267.63-17.6 268.34-16.82 269.04-16.05 269.26-15 269.49-13.95 269.49-12.7L269.49-12.7 269.49-9.5Q269.49-8.4 269.24-7.48 268.99-6.55 268.31-5.9 267.63-5.25 266.34-4.88 265.04-4.5 262.94-4.5ZM259.63-31L259.63-31 249.99-31 249.99-18.45 259.63-18.45Q261.69-18.45 262.88-18.82 264.09-19.2 264.71-19.83 265.34-20.45 265.51-21.28 265.69-22.1 265.69-23L265.69-23 265.69-26.2Q265.69-28.2 264.54-29.6 263.38-31 259.63-31ZM255.19-22.1L255.19-27.5 259.44-27.5Q260.38-27.5 260.86-27 261.34-26.5 261.34-25.5L261.34-25.5 261.34-24.1Q261.34-23.1 260.86-22.6 260.38-22.1 259.44-22.1L259.44-22.1 255.19-22.1ZM262.99-17.95L262.99-17.95 249.99-17.95 249.99-5 262.94-5Q266.69-5 267.84-6.23 268.99-7.45 268.99-9.5L268.99-9.5 268.99-12.7Q268.99-14.95 267.86-16.45 266.74-17.95 262.99-17.95ZM255.19-8.5L255.19-14.4 261.69-14.4Q262.63-14.4 263.11-13.93 263.59-13.45 263.59-12.45L263.59-12.45 263.59-10.5Q263.59-9.5 263.11-9 262.63-8.5 261.69-8.5L261.69-8.5 255.19-8.5ZM303.73 5.95L303.73 5.95 280.53 5.95Q279.33 5.95 278.78 5.4 278.23 4.85 278.23 3.65L278.23 3.65 278.23-28.75Q278.23-29.4 278.41-29.85 278.58-30.3 278.93-30.6L278.93-30.6 285.38-36.05Q285.63-36.25 286.06-36.38 286.48-36.5 286.98-36.5L286.98-36.5 310.18-36.5Q311.38-36.5 311.93-35.95 312.48-35.4 312.48-34.2L312.48-34.2 312.48-28.35Q312.48-27.7 312.31-27.25 312.13-26.8 311.78-26.5L311.78-26.5 307.48-22.95Q307.98-22.7 308.21-22.2 308.43-21.7 308.43-20.9L308.43-20.9 308.43-15.55Q308.43-14.9 308.26-14.45 308.08-14 307.73-13.7L307.73-13.7 303.28-9.95 310.18-9.95Q311.38-9.95 311.93-9.4 312.48-8.85 312.48-7.65L312.48-7.65 312.48-1.8Q312.48-1.15 312.31-0.7 312.13-0.25 311.78 0.05L311.78 0.05 305.28 5.45Q305.08 5.65 304.66 5.8 304.23 5.95 303.73 5.95ZM286.98 0L310.18 0Q311.13 0 311.56-0.43 311.98-0.85 311.98-1.8L311.98-1.8 311.98-7.65Q311.98-8.6 311.56-9.03 311.13-9.45 310.18-9.45L310.18-9.45 296.38-9.45 296.38-13.75 306.13-13.75Q307.08-13.75 307.51-14.18 307.93-14.6 307.93-15.55L307.93-15.55 307.93-20.9Q307.93-21.85 307.51-22.28 307.08-22.7 306.13-22.7L306.13-22.7 296.38-22.7 296.38-26.55 310.18-26.55Q311.13-26.55 311.56-26.98 311.98-27.4 311.98-28.35L311.98-28.35 311.98-34.2Q311.98-35.15 311.56-35.58 311.13-36 310.18-36L310.18-36 286.98-36Q286.03-36 285.61-35.58 285.18-35.15 285.18-34.2L285.18-34.2 285.18-1.8Q285.18-0.85 285.61-0.43 286.03 0 286.98 0L286.98 0ZM291.13-5L307.48-5 307.48-4.5 290.63-4.5 290.63-31.5 307.48-31.5 307.48-31 291.13-31 291.13-18.45 303.43-18.45 303.43-17.95 291.13-17.95 291.13-5Z" opacity="1" transform="matrix(1,0,0,1,0,0)" fill="#0718c4" class="wordmark-text-0" data-fill-palette-color="primary" id="text-0"></path></svg></g></svg></g></svg></g></svg></g><g></g></svg></g></svg></g></svg></g><defs></defs></svg><rect width="395.5199999999999" height="66.5159102244389" fill="none" stroke="none" visibility="hidden"></rect></g></svg></g></svg>